<svg xmlns="http://www.w3.org/2000/svg" viewBox="0 0 18 18">
    <g fill="none" fill-rule="evenodd">
        <path fill="#4267B2" d="M17.006 0H.994A.994.994 0 0 0 0 .994v16.012c0 .55.445.994.994.994h8.621v-6.96H7.277V8.313h2.338V6.311c0-2.325 1.42-3.591 3.494-3.591.993 0 1.847.074 2.096.105v2.43h-1.43c-1.129 0-1.347.536-1.347 1.323v1.736h2.698l-.352 2.725h-2.346V18h4.578a.994.994 0 0 0 .994-.994V.994A.994.994 0 0 0 17.006 0z"/>
        <path fill="#FFF" d="M12.428 18v-6.96h2.346l.352-2.726h-2.698V6.58c0-.787.218-1.323 1.347-1.323h1.43v-2.43a19.402 19.402 0 0 0-2.096-.106c-2.074 0-3.494 1.266-3.494 3.59v2.005H7.277v2.724h2.338V18h2.813z"/>
    </g>
</svg>
