<svg xmlns="http://www.w3.org/2000/svg" viewBox="0 0 20 16">
    <g fill="none" fill-rule="evenodd">
        <path d="M-5-7h30v30H-5z"/>
        <path fill="#1DA1F2" d="M6.521 15.62c7.076 0 10.946-5.863 10.946-10.946 0-.167 0-.333-.011-.497a7.827 7.827 0 0 0 1.919-1.992 7.678 7.678 0 0 1-2.21.605A3.86 3.86 0 0 0 18.858.663a7.71 7.71 0 0 1-2.443.934 3.85 3.85 0 0 0-6.556 3.508 10.921 10.921 0 0 1-7.928-4.02 3.85 3.85 0 0 0 1.191 5.136 3.818 3.818 0 0 1-1.746-.482v.05a3.848 3.848 0 0 0 3.086 3.77 3.84 3.84 0 0 1-1.737.066 3.851 3.851 0 0 0 3.594 2.672A7.719 7.719 0 0 1 .625 13.89a10.89 10.89 0 0 0 5.896 1.725"/>
    </g>
</svg>
